<svg width="48" height="48" fill="none" xmlns="http://www.w3.org/2000/svg"><path d="M10 38h7M43 44v3H19V11c0-1.66-1.34-3-3-3s-3 1.34-3 3v24c0 1.66-1.34 3-3 3s-3-1.34-3-3V4c0-1.66-1.34-3-3-3S1 2.34 1 4v5h4" stroke="#fff" stroke-width="2" stroke-miterlimit="10"/><path d="M16 8h24c1.66 0 3 1.34 3 3v4M5 1h22c1.66 0 3 1.34 3 3v2" stroke="#fff" stroke-width="2" stroke-miterlimit="10"/><path d="M47 17H29v25h18V17ZM29 24h18M29 30h18M29 36h12M35 42V24M41 42V24" stroke="#F8AA2B" stroke-width="2" stroke-miterlimit="10"/></svg>