<svg width="45" height="45" fill="none" xmlns="http://www.w3.org/2000/svg"><path d="M6 23v7M10 18v12M14 24v6M18 20v10" stroke="#fff" stroke-width="2" stroke-miterlimit="10"/><path d="M44 11H23v27h21V11ZM23 20h21M23 26h21M23 32h14M30 38V20M37 38V20" stroke="#F8AA2B" stroke-width="2" stroke-miterlimit="10"/><path d="M34 9V3c0-1.1-.9-2-2-2H9L1 9v33c0 1.1.9 2 2 2h29c1.1 0 2-.9 2-2v-2" stroke="#fff" stroke-width="2" stroke-miterlimit="10"/><path d="M4 10h6V4" stroke="#fff" stroke-width="2" stroke-miterlimit="10"/></svg>