<svg width="22" height="48" fill="none" xmlns="http://www.w3.org/2000/svg"><path d="M21 7v7.89c0 2.08-1.08 4.02-2.86 5.11L11 24M21 22v2c0 2.08-1.08 4.02-2.86 5.11l-7.14 4v-7M21 31.11v2c0 2.08-1.08 4.02-2.86 5.11l-7.14 4v-7M1 7v7.89c0 2.08 1.08 4.02 2.86 5.11L11 24M1 22v2c0 2.08 1.08 4.02 2.86 5.11l7.14 4v-7M1 31.11v2c0 2.08 1.08 4.02 2.86 5.11l7.14 4v-7" stroke="#6B3012" stroke-width="2" stroke-miterlimit="10" stroke-linecap="round"/><path d="M7 17c0 4.26 4 7 4 7s4-2.74 4-7-4-7-4-7-4 2.74-4 7ZM11 1v9M11 24v22.22" stroke="#6B3012" stroke-width="2" stroke-miterlimit="10" stroke-linecap="round"/><path d="M6 4v6M16 4v6" stroke="#F8AA2B" stroke-width="2" stroke-miterlimit="10" stroke-linecap="round"/></svg>