<svg width="44" height="48" viewBox="0 0 44 48" fill="none" xmlns="http://www.w3.org/2000/svg">
<path d="M43.9999 23H37.0099C36.0199 23 35.0599 22.71 34.2399 22.16L33.7599 21.84C32.9399 21.29 31.9699 21 30.9899 21H23.4099C22.6899 21 21.9999 21.26 21.4499 21.73L18.5899 24.63C18.5899 24.63 17.1099 26.13 15.6299 27.69C17.1399 29.2 18.7799 29.3 20.1899 28.81C21.5999 28.33 23.4599 27 23.4599 27H25.9999L29.7299 30.47" stroke="white" stroke-width="2" stroke-miterlimit="10"/>
<path d="M36.4199 37.21C37.3499 36.28 38.4999 36 39.9999 36" stroke="white" stroke-width="2" stroke-miterlimit="10"/>
<path d="M29.7301 30.47C29.7301 30.47 34.9201 35.91 36.4201 37.21C37.9201 38.5 35.8601 41.94 33.4401 40.05C32.0001 38.82 27.3701 34.39 27.3701 34.39" stroke="white" stroke-width="2" stroke-miterlimit="10"/>
<path d="M34.13 40.45C33.69 41.5 31.91 43.9499 29.64 42.2399C28.2 41.0099 25.21 38.1799 25.21 38.1799" stroke="white" stroke-width="2" stroke-miterlimit="10"/>
<path d="M30.5001 42.7199C29.4701 44.7999 27.6601 45.6399 26.0301 44.3499C24.8801 43.4499 23.1401 41.6599 23.1401 41.6599" stroke="white" stroke-width="2" stroke-miterlimit="10"/>
<path d="M26.5602 44.6899C25.9402 46.2299 24.1602 47.2299 22.7302 46.3299C21.9002 45.8099 20.4102 44.7199 20.4102 44.7199" stroke="white" stroke-width="2" stroke-miterlimit="10"/>
<path d="M0 23H8.79001C9.58001 23 10.35 22.77 11.01 22.33L11.99 21.67C12.65 21.23 13.42 21 14.21 21H19.05C19.49 21 19.92 21.15 20.27 21.42L21.13 22" stroke="white" stroke-width="2" stroke-miterlimit="10"/>
<path d="M11.2901 38.62C12.0101 37.93 11.8801 36.93 11.1901 36.22L11.1801 36.21C10.4901 35.49 9.34009 35.47 8.62009 36.17L7.60011 37.15C6.88011 37.85 6.8601 38.99 7.5601 39.71C8.2601 40.44 9.42011 40.46 10.1401 39.75" stroke="white" stroke-width="2" stroke-miterlimit="10"/>
<path d="M15.4502 37.1199L15.4402 37.1099C14.7502 36.3899 13.6002 36.3699 12.8802 37.0699L9.91016 39.9699C9.19016 40.6699 9.17016 41.8099 9.87016 42.5299C10.5702 43.2599 11.7302 43.2799 12.4502 42.5699L15.4102 39.6799C16.1202 38.9899 16.1402 37.8399 15.4502 37.1199Z" stroke="white" stroke-width="2" stroke-miterlimit="10"/>
<path d="M12.9401 42.0899C12.2201 42.7799 12.1901 43.9299 12.8801 44.6499C13.5701 45.3799 14.7301 45.4099 15.4601 44.7099L18.1702 42.0599C18.8902 41.3699 18.9202 40.2199 18.2302 39.4999L18.2201 39.4899C17.5301 38.7599 16.3801 38.7399 15.6601 39.4299" stroke="white" stroke-width="2" stroke-miterlimit="10"/>
<path d="M16.7402 43.4601C16.0302 44.1601 16.0102 45.31 16.7102 46.02C17.4102 46.74 18.5702 46.76 19.2902 46.05L19.9802 45.3801C20.6902 44.6801 20.7002 43.5301 20.0102 42.8201L20.0002 42.8101C19.3002 42.0901 18.1502 42.0801 17.4402 42.7801" stroke="white" stroke-width="2" stroke-miterlimit="10"/>
<path d="M33.99 31.39C31.61 31.88 31.01 31.27 29.73 30.48" stroke="white" stroke-width="2" stroke-miterlimit="10"/>
<path d="M7.53 37.22C6.9 36.62 5.66 36.04 4 36.04" stroke="white" stroke-width="2" stroke-miterlimit="10"/>
<path d="M36 19V1H10L6 5V20" stroke="#F8AA2B" stroke-width="2" stroke-miterlimit="10"/>
<path d="M12 4V7H9" stroke="#F8AA2B" stroke-width="2" stroke-miterlimit="10"/>
<path d="M15 12H29" stroke="#F8AA2B" stroke-width="2" stroke-miterlimit="10"/>
<path d="M15 16H23" stroke="#F8AA2B" stroke-width="2" stroke-miterlimit="10"/>
<path d="M13 21H24" stroke="white" stroke-width="2" stroke-miterlimit="10"/>
</svg>
