<svg width="47" height="47" fill="none" xmlns="http://www.w3.org/2000/svg"><path d="M10 33c-2.36 0-4-1.92-4-4.29v-1.43c0-2.37 1.64-4.29 4-4.29 2.36 0 4 1.92 4 4.29v1.43c0 2.37-1.64 4.29-4 4.29Z" stroke="#6B3012" stroke-width="2" stroke-miterlimit="10"/><path d="M1 46c.57-3.21 1.22-6.45 1.22-6.45.48-2.77 2.57-3.93 4.28-3.93h1.04c1.97 0 3 1.87 3.71 2.92.71 1.05 1.71 2.48 1.71 2.48l4.34.67c2.5.53 2.2 4.25-.35 4.31h-6.3l-3.42-3.24M9 46h33M22.38 43h9.03L37 33H20.59l-3.19 5.7" stroke="#6B3012" stroke-width="2" stroke-miterlimit="10" stroke-linecap="round" stroke-linejoin="round"/><path d="M14 14c0-7.18 7.16-13 16-13s16 5.82 16 13-7.16 13-16 13c-1.81 0-3.55-.26-5.17-.71l-6.43 3.53.45-6.52C15.86 20.95 14 17.65 14 14ZM27.5 20h5" stroke="#F8AA2B" stroke-width="2" stroke-miterlimit="10" stroke-linecap="round" stroke-linejoin="round"/><path d="M30 20v-8h-2M30 7.5v1" stroke="#F8AA2B" stroke-width="2" stroke-miterlimit="10" stroke-linecap="round" stroke-linejoin="round"/></svg>