<svg width="17" height="23" viewBox="0 0 17 23" fill="none" xmlns="http://www.w3.org/2000/svg">
<path d="M8.4933 5.84473C8.50016 5.84473 8.50016 5.84473 8.4933 5.84473C8.50016 5.84473 8.50016 5.84473 8.50016 5.84473C10.0098 5.84473 11.238 6.9925 11.238 8.587C11.238 10.1815 10.0166 11.343 8.50702 11.343C8.50016 11.343 8.50016 11.343 8.4933 11.343C8.48644 11.343 8.48644 11.343 8.47958 11.343C6.96997 11.343 5.7417 10.1884 5.74856 8.587C5.75543 6.9925 6.9837 5.84473 8.4933 5.84473Z" stroke="#E67A00" stroke-width="2" stroke-miterlimit="10"/>
<path d="M8.5 0.999512C12.6446 0.999512 16 4.36034 16 8.51154C16 10.3054 15.7392 11.5493 14.7168 13.1782C13.7013 14.8071 8.5 20.9995 8.5 20.9995C8.5 20.9995 3.29872 14.8071 2.28316 13.1782C1.26761 11.5493 1 10.3054 1 8.51154C1 4.36034 4.35544 0.999512 8.5 0.999512Z" stroke="#E67A00" stroke-width="2" stroke-miterlimit="10"/>
</svg>
