<svg width="75" height="67" viewBox="0 0 75 67" fill="none" xmlns="http://www.w3.org/2000/svg">
<path d="M48.5312 50.729H0V53.7605H50.3542L48.5312 50.729Z" fill="#F7AB2B"/>
<path d="M60.6094 50.6665L62.4507 53.7603H74.5246L74.4343 50.6665H60.6094Z" fill="#F7AB2B"/>
<path d="M10.6357 56.7915V60.0902H54.128L52.2341 56.8874L10.6357 56.7915Z" fill="#F7AB2B"/>
<path d="M16.7889 47.6252L41.7604 6.06393L38.8099 4.2915L14.8019 44.5397L6.43652 44.5356V47.6252H16.7889Z" fill="#F7AB2B"/>
<path d="M24.7472 47.6253L52.5081 1.77L49.5566 0L20.7329 47.6253H24.7472Z" fill="#F7AB2B"/>
<path d="M39.6948 29.2627L62.1624 66.6121H66.286L41.6981 25.9138L39.6948 29.2627Z" fill="#F7AB2B"/>
<path d="M39.7814 36.1036L37.6957 32.6047L28.7007 47.6253H32.8887L39.7814 36.1036Z" fill="#F7AB2B"/>
<path d="M51.4553 16.5885L48.3671 14.7659L43.7075 22.5545L58.7531 47.6253H69.66V44.5931H60.8242L47.8056 22.6899L51.4553 16.5885Z" fill="#F7AB2B"/>
</svg>
