<svg width="213" height="67" fill="none" xmlns="http://www.w3.org/2000/svg"><path fill-rule="evenodd" clip-rule="evenodd" d="m15.48 14.204-2.601 1.56c-1.432.858-2.602 3.151-2.602 5.096v6.181l2.602-1.56c1.43-.858 2.601-3.151 2.601-5.096v-6.181ZM2.63 27.55l2.601 1.56c1.432.858 2.602 3.151 2.602 5.096v6.181l-2.602-1.56C3.8 37.97 2.63 35.678 2.63 33.732v-6.181Zm12.85 0-2.601 1.56c-1.432.858-2.602 3.151-2.602 5.096v6.181l2.602-1.56c1.43-.858 2.601-3.15 2.601-5.096v-6.181ZM2.63 14.204l2.601 1.56c1.432.858 2.602 3.151 2.602 5.096v6.181l-2.602-1.56C3.8 24.623 2.63 22.33 2.63 20.385v-6.181Zm34.742 0-2.602 1.56c-1.431.858-2.602 3.151-2.602 5.096v6.181l2.602-1.56c1.432-.858 2.602-3.151 2.602-5.096v-6.181ZM24.522 27.55l2.602 1.56c1.431.858 2.602 3.151 2.602 5.096v6.181l-2.602-1.56c-1.431-.858-2.602-3.15-2.602-5.096v-6.181Zm12.85 0-2.602 1.56c-1.431.858-2.602 3.151-2.602 5.096v6.181l2.602-1.56c1.432-.858 2.602-3.15 2.602-5.096v-6.181Zm-12.85-13.347 2.602 1.56c1.431.858 2.602 3.151 2.602 5.096v6.181l-2.602-1.56c-1.431-.858-2.602-3.151-2.602-5.096v-6.181Zm5.204 29.248-7.834-3.814V5.079c0-.67.549-1.22 1.22-1.22.672 0 1.222.55 1.222 1.22v5.95l4.142 2.483c.449.269.867.603 1.25.988V1.22c0-.672.549-1.22 1.22-1.22.672 0 1.22.548 1.22 1.22v13.279a6.524 6.524 0 0 1 1.25-.988l4.143-2.483v-5.95c0-.67.55-1.22 1.22-1.22.672 0 1.221.55 1.221 1.22V33.732c0 2.706-1.522 5.935-3.879 7.348l-3.767 2.258-.188.113v22.33c0 .67-.55 1.219-1.22 1.219-.672 0-1.22-.549-1.22-1.22V43.453ZM24 48h-3v3h3v-3Zm-5 5h-3v3h3v-3Zm5 0h-3v3h3v-3Zm-5-5h-3v3h3v-3Zm-8.724-33.501a6.527 6.527 0 0 1 1.25-.988l4.142-2.483v-5.95c0-.67.549-1.22 1.22-1.22.672 0 1.22.55 1.22 1.22v34.559l-7.833 3.814v22.33c0 .67-.55 1.219-1.22 1.219-.672 0-1.221-.549-1.221-1.22V43.45l-.188-.112L3.88 41.08C1.522 39.667 0 36.438 0 33.732V5.08c0-.67.549-1.22 1.22-1.22.672 0 1.22.55 1.22 1.22v5.95l4.144 2.483c.448.269.866.603 1.25.988V1.22c0-.672.548-1.22 1.22-1.22.671 0 1.22.548 1.22 1.22v13.279h.002Z" fill="#E67A00"/><path d="M16 58h3v3h-3v-3ZM21 58h3v3h-3v-3Z" fill="#E67A00"/><path d="M55.36 27.152c1.568-1.6 3.536-2.4 5.904-2.4s4.328.8 5.88 2.4c1.568 1.6 2.352 3.56 2.352 5.88s-.784 4.28-2.352 5.88c-1.552 1.6-3.512 2.4-5.88 2.4s-4.336-.8-5.904-2.4c-1.552-1.6-2.328-3.56-2.328-5.88s.776-4.28 2.328-5.88Zm1.896 10.056c1.072 1.12 2.408 1.68 4.008 1.68s2.928-.56 3.984-1.68c1.072-1.12 1.608-2.512 1.608-4.176 0-1.664-.536-3.056-1.608-4.176-1.056-1.12-2.384-1.68-3.984-1.68s-2.936.56-4.008 1.68c-1.056 1.12-1.584 2.512-1.584 4.176 0 1.664.528 3.056 1.584 4.176Zm15.107-7.416h2.544V34.4l4.968-4.608h3.48l-6.12 5.616L83.355 41h-3.48l-4.968-4.344V41h-2.544V29.792Zm12.156 2.232v-2.232h11.063v2.232h-4.271V41h-2.545v-8.976h-4.248Zm20.28 5.52h-2.112L99.711 41h-3.216l3.192-3.72c-.848-.272-1.488-.728-1.92-1.368-.432-.656-.648-1.408-.648-2.256 0-1.12.368-2.04 1.104-2.76.752-.736 1.84-1.104 3.264-1.104h5.856V41h-2.544v-3.456Zm0-5.52h-3.24c-.592 0-1.056.144-1.392.432-.336.272-.504.672-.504 1.2 0 .528.168.936.504 1.224.352.288.816.432 1.392.432h3.24v-3.288Zm11.877-2.064c1.6 0 2.944.552 4.032 1.656 1.088 1.088 1.632 2.432 1.632 4.032s-.568 2.944-1.704 4.032c-1.136 1.088-2.536 1.632-4.2 1.632-1.856 0-3.304-.6-4.344-1.8-1.04-1.2-1.56-2.88-1.56-5.04 0-2.624.392-4.584 1.176-5.88.784-1.312 2.048-2.056 3.792-2.232l2.064-.216c.608-.064 1.064-.176 1.368-.336.304-.176.504-.464.6-.864h2.544c-.096 1.024-.432 1.808-1.008 2.352-.576.544-1.416.88-2.52 1.008l-2.76.288c-.896.096-1.584.416-2.064.96s-.752 1.208-.816 1.992c.816-1.056 2.072-1.584 3.768-1.584Zm-2.64 8.064c.64.624 1.44.936 2.4.936s1.76-.312 2.4-.936c.64-.624.96-1.416.96-2.376s-.32-1.752-.96-2.376c-.64-.64-1.44-.96-2.4-.96s-1.76.32-2.4.96c-.64.624-.96 1.416-.96 2.376s.32 1.752.96 2.376Zm13.793 7.872h-2.544V29.792h2.544v1.032c.848-.896 2.024-1.344 3.528-1.344 1.744 0 3.128.584 4.152 1.752 1.04 1.152 1.56 2.536 1.56 4.152 0 1.632-.52 3.032-1.56 4.2-1.024 1.152-2.408 1.728-4.152 1.728-1.504 0-2.68-.448-3.528-1.344v5.928Zm.912-13.128c-.672.608-1.008 1.48-1.008 2.616 0 1.136.336 2.016 1.008 2.64.688.624 1.504.936 2.448.936.976 0 1.776-.344 2.4-1.032.624-.704.936-1.552.936-2.544 0-.976-.312-1.808-.936-2.496-.624-.704-1.424-1.056-2.4-1.056-.944 0-1.76.312-2.448.936Zm13.83.48h3.552c1.408 0 2.488.376 3.24 1.128.752.736 1.128 1.656 1.128 2.76 0 1.12-.376 2.048-1.128 2.784-.736.72-1.816 1.08-3.24 1.08h-6.096V29.792h2.544v3.456Zm0 5.52h3.48c.592 0 1.056-.136 1.392-.408.336-.288.504-.696.504-1.224s-.176-.936-.528-1.224c-.336-.288-.792-.432-1.368-.432h-3.48v3.288Zm21.049-5.496h-2.664c-.592-.96-1.504-1.44-2.736-1.44-.992 0-1.808.336-2.448 1.008-.624.672-.936 1.52-.936 2.544s.312 1.88.936 2.568c.64.672 1.456 1.008 2.448 1.008 1.232 0 2.144-.48 2.736-1.44h2.664c-.416 1.168-1.112 2.096-2.088 2.784-.96.672-2.064 1.008-3.312 1.008-1.68 0-3.088-.56-4.224-1.68-1.136-1.136-1.704-2.552-1.704-4.248 0-1.68.568-3.08 1.704-4.2 1.136-1.136 2.544-1.704 4.224-1.704 1.248 0 2.352.344 3.312 1.032.976.672 1.672 1.592 2.088 2.76Zm2.845-3.48h2.544V34.4l4.968-4.608h3.48l-6.12 5.616 6.12 5.592h-3.48l-4.968-4.344V41h-2.544V29.792ZM182.063 41h-2.544V29.792h2.544V37.4l5.976-7.608h2.544V41h-2.544v-7.608L182.063 41Zm14.719 0h-2.544V29.792h2.544V37.4l5.976-7.608h2.544V41h-2.544v-7.608L196.782 41Zm-1.608-17.184h2.136c.048.672.296 1.224.744 1.656.464.432 1.032.648 1.704.648.672 0 1.232-.216 1.68-.648.464-.432.72-.984.768-1.656h2.136c-.064 1.28-.528 2.336-1.392 3.168-.864.832-1.928 1.248-3.192 1.248-1.264 0-2.328-.416-3.192-1.248-.864-.832-1.328-1.888-1.392-3.168Z" fill="#2B1C14"/><path d="M54.576 51.312v-1.064h3.192c-.093-.523-.327-.943-.7-1.26-.373-.327-.826-.49-1.358-.49-.803 0-1.386.313-1.75.938h-1.33a3.06 3.06 0 0 1 1.176-1.498c.55-.373 1.185-.56 1.904-.56.952 0 1.74.322 2.366.966.635.644.952 1.456.952 2.436s-.317 1.792-.952 2.436c-.625.644-1.414.966-2.366.966-.719 0-1.353-.187-1.904-.56a3.06 3.06 0 0 1-1.176-1.498h1.33c.364.625.947.938 1.75.938.532 0 .985-.159 1.358-.476.373-.327.607-.751.7-1.274h-3.192Zm6.899-3.752h5.152V54h-1.204v-5.376h-2.744v1.666c0 .392-.01.733-.028 1.022a5.68 5.68 0 0 1-.168.98c-.084.364-.206.658-.364.882-.15.224-.37.42-.658.588-.29.159-.64.238-1.05.238h-.406v-1.134h.252c.28 0 .508-.075.686-.224.177-.15.298-.373.364-.672.074-.299.12-.56.14-.784.018-.224.028-.523.028-.896v-2.73Zm10.349 5.502c.803 0 1.372-.29 1.708-.868h1.302a2.866 2.866 0 0 1-1.148 1.456c-.532.355-1.153.532-1.862.532-.97 0-1.778-.322-2.422-.966-.635-.644-.952-1.46-.952-2.45 0-.97.308-1.778.924-2.422.625-.644 1.419-.966 2.38-.966.905 0 1.657.322 2.254.966.607.635.91 1.419.91 2.352 0 .27-.01.448-.028.532h-5.194c.075.532.308.97.7 1.316.401.345.877.518 1.428.518Zm-.07-4.564c-.55 0-1.013.154-1.386.462-.364.299-.583.705-.658 1.218h3.948c-.075-.513-.28-.92-.616-1.218-.336-.308-.765-.462-1.288-.462Zm10.045 2.282c.598.308.896.803.896 1.484 0 .504-.177.92-.532 1.246-.345.327-.854.49-1.526.49h-3.906v-6.44h3.85c.672 0 1.181.163 1.526.49.355.317.532.733.532 1.246 0 .672-.28 1.167-.84 1.484Zm-3.864 2.156h2.576c.654 0 .98-.27.98-.812 0-.541-.326-.812-.98-.812h-2.576v1.624Zm0-2.688h2.52c.654 0 .98-.27.98-.812 0-.541-.326-.812-.98-.812h-2.52v1.624Zm9.152-2.87c.933 0 1.68.224 2.24.672.56.439.84 1.055.84 1.848V54h-1.204v-.7c-.542.588-1.288.882-2.24.882-.784 0-1.419-.182-1.904-.546-.476-.364-.714-.896-.714-1.596 0-.728.261-1.255.784-1.582.532-.336 1.213-.504 2.044-.504h2.03c0-.97-.626-1.456-1.876-1.456-.411 0-.784.084-1.12.252-.327.159-.556.387-.686.686h-1.33a2.527 2.527 0 0 1 1.134-1.512c.578-.364 1.246-.546 2.002-.546Zm1.876 4.046v-.42h-2.044c-1.074 0-1.61.345-1.61 1.036 0 .681.513 1.022 1.54 1.022.644 0 1.157-.15 1.54-.448.382-.308.574-.705.574-1.19Zm2.378-2.8V47.56h6.188v1.064h-2.492V54h-1.205v-5.376h-2.491Zm10.438-1.246c.961 0 1.764.327 2.408.98.644.644.966 1.451.966 2.422 0 .97-.322 1.783-.966 2.436-.644.644-1.447.966-2.408.966-.971 0-1.778-.322-2.422-.966-.635-.653-.952-1.465-.952-2.436 0-.97.317-1.778.952-2.422.644-.653 1.451-.98 2.422-.98Zm-1.554 5.026c.411.439.929.658 1.554.658s1.143-.22 1.554-.658c.411-.439.616-.98.616-1.624 0-.653-.205-1.195-.616-1.624-.401-.439-.919-.658-1.554-.658s-1.157.22-1.568.658c-.401.43-.602.97-.602 1.624 0 .644.205 1.185.616 1.624Zm7.953 4.452h-1.204V47.56h1.204v.7c.532-.588 1.255-.882 2.17-.882 1.017 0 1.815.331 2.394.994.578.663.868 1.465.868 2.408 0 .943-.29 1.745-.868 2.408-.579.663-1.377.994-2.394.994-.915 0-1.638-.294-2.17-.882v3.556Zm.588-7.756c-.42.392-.63.952-.63 1.68s.21 1.293.63 1.694c.429.392.942.588 1.54.588.606 0 1.106-.22 1.498-.658.401-.448.602-.99.602-1.624 0-.635-.201-1.171-.602-1.61a1.903 1.903 0 0 0-1.498-.672c-.598 0-1.111.2-1.54.602Z" fill="#000"/></svg>