<svg width="56" height="74" viewBox="0 0 56 74" fill="none" xmlns="http://www.w3.org/2000/svg">
<path d="M28 0C43.473 0 56 12.4351 56 27.7945C56 34.4316 55.0265 39.0344 51.2095 45.0612C47.4181 51.088 28 74 28 74C28 74 8.58188 51.088 4.79048 45.0612C0.999082 39.0344 0 34.4316 0 27.7945C0 12.4351 12.527 0 28 0Z" fill="#E67A00"/>
<path fill-rule="evenodd" clip-rule="evenodd" d="M25.2882 18.5223L23.7271 19.4584C22.8683 19.9733 22.1659 21.349 22.1659 22.5158V24.4629V26.2247L23.7271 25.2885C24.5859 24.7736 25.2882 23.3979 25.2882 22.2311V18.5223ZM17.5776 26.5306L19.1388 27.4667C19.9976 27.9816 20.6999 29.3574 20.6999 30.5242V34.233L19.1388 33.2969C18.2799 32.782 17.5776 31.4063 17.5776 30.2395V26.5306ZM25.2882 26.5306L23.7271 27.4667C22.8683 27.9816 22.1659 29.3574 22.1659 30.5242V34.233L23.7271 33.2969C24.5859 32.782 25.2882 31.4063 25.2882 30.2395V26.5306ZM17.5776 18.5223L19.1388 19.4584C19.9976 19.9733 20.6999 21.349 20.6999 22.5158V24.4629V26.2247L19.1388 25.2885C18.2799 24.7736 17.5776 23.3979 17.5776 22.2311V18.5223ZM38.4234 18.5223L36.8622 19.4584C36.0034 19.9733 35.3011 21.349 35.3011 22.5158V24.4629V26.2247L36.8622 25.2885C37.721 24.7736 38.4234 23.3979 38.4234 22.2311V18.5223ZM30.7127 26.5306L32.2744 27.4667C33.1332 27.9816 33.8355 29.3574 33.8355 30.5242V34.233L32.2744 33.2969C31.4155 32.782 30.7132 31.4063 30.7132 30.2395L30.7127 26.5306ZM38.4234 26.5306L36.8622 27.4667C36.0034 27.9816 35.3011 29.3574 35.3011 30.5242V34.233L36.8622 33.2969C37.721 32.782 38.4234 31.4063 38.4234 30.2395V26.5306ZM30.7127 18.5223L32.2744 19.4584C33.1332 19.9733 33.8355 21.349 33.8355 22.5158V24.4629V26.2247L32.2744 25.2885C31.4155 24.7736 30.7132 23.3979 30.7132 22.2311L30.7127 18.5223ZM33.8355 36.071L29.1351 33.7828V30.2399V22.9906V15.7389V13.0473C29.1351 12.6448 29.4646 12.3157 29.8674 12.3157C30.2703 12.3157 30.6002 12.6448 30.6002 13.0473V16.6172L33.0859 18.1073C33.3549 18.2684 33.6056 18.4692 33.8355 18.6998V10.7315C33.8355 10.3291 34.165 10 34.5678 10C34.9707 10 35.3001 10.3291 35.3001 10.7315V18.6994C35.53 18.4692 35.7807 18.2684 36.0498 18.1068L38.5354 16.6167V13.0468C38.5354 12.6444 38.8649 12.3153 39.2677 12.3153C39.6706 12.3153 40 12.6444 40 13.0468V15.7384V22.69V25.1471V30.2395C40 31.8627 39.0871 33.8002 37.6727 34.648L35.4121 36.003L35.2996 36.0705V49.4685C35.2996 49.8709 34.9702 50.2 34.5673 50.2C34.1645 50.2 33.835 49.8709 33.835 49.4685L33.8355 36.071ZM30.4 38.8H28.6V40.6H30.4V38.8ZM27.4 41.8H25.6V43.6H27.4V41.8ZM30.4 41.8H28.6V43.6H30.4V41.8ZM27.4 38.8H25.6V40.6H27.4V38.8ZM22.1654 18.6994C22.3954 18.4692 22.6461 18.2684 22.9151 18.1068L25.4008 16.6167V13.0468C25.4008 12.6444 25.7302 12.3153 26.1331 12.3153C26.5359 12.3153 26.8654 12.6444 26.8654 13.0468V15.7384V22.69V25.1471V30.2395V33.7823L22.165 36.0705V49.4685C22.165 49.8709 21.8355 50.2 21.4327 50.2C21.0298 50.2 20.7004 49.8709 20.7004 49.4685V36.0705L20.5879 36.003L18.3273 34.648C16.9129 33.8002 16 31.8627 16 30.2395V22.9906V15.7389V13.0473C16 12.6448 16.3294 12.3157 16.7323 12.3157C17.1351 12.3157 17.4646 12.6448 17.4646 13.0473V16.6172L19.9502 18.1073C20.2193 18.2684 20.47 18.4692 20.6999 18.6998V10.7315C20.6999 10.3291 21.0293 10 21.4322 10C21.835 10 22.1645 10.3291 22.1645 10.7315V18.6994H22.1654Z" fill="white"/>
<path d="M25.6 44.8H27.4V46.6H25.6V44.8Z" fill="white"/>
<path d="M28.6 44.8H30.4V46.6H28.6V44.8Z" fill="white"/>
</svg>
