<svg width="48" height="45" fill="none" xmlns="http://www.w3.org/2000/svg"><path d="M17 24H7v7h10v-7ZM12 24v7" stroke="#6B3012" stroke-width="2" stroke-miterlimit="10"/><path d="M21 24h2" stroke="#6B3012" stroke-width="2" stroke-miterlimit="10" stroke-linejoin="round"/><path d="M39 17c1.21-.91 2-2.36 2-4 0-2.07-1.26-3.85-3.06-4.61C37.64 5.92 35.55 4 33 4c-.81 0-1.56.21-2.24.55C30.14 2.5 28.25 1 26 1c-2.07 0-3.85 1.26-4.61 3.05-1.31-.9-3-1.3-4.78-.9-2.22.5-4.01 2.32-4.47 4.55A6.004 6.004 0 0 0 18 14.99c1.95 0 3.69-.94 4.78-2.38.14-.19.44-.14.52.08.69 1.93 2.53 3.3 4.7 3.3 1.28 0 2.44-.5 3.32-1.29.34.92.93 1.71 1.69 2.28" stroke="#F8AA2B" stroke-width="2" stroke-miterlimit="10"/><path d="m35 27 1-2-2-5h7l-2 5 1 2h2c2.76 0 5 2.24 5 5s-2.24 5-5 5l3.2 5H36v-3H3V24H1v-2c0-1.66 1.34-3 3-3h18c1.66 0 3 1.34 3 3v2h-2v3h12Z" stroke="#6B3012" stroke-width="2" stroke-miterlimit="10"/><path d="M29 6c.52-.69 1.2-1.24 2-1.58M18 3c2.22 0 4.16 1.21 5.2 3M32.9 12a5 5 0 0 1-4.9 4" stroke="#F8AA2B" stroke-width="2" stroke-miterlimit="10" stroke-linejoin="round"/><path d="M32 24h-4M30 27v-3M1 39h2" stroke="#6B3012" stroke-width="2" stroke-miterlimit="10"/><path d="M4.14 39c-.09.32-.14.65-.14 1 0 2.21 1.79 4 4 4s4-1.79 4-4c0-.35-.05-.68-.14-1M12.14 39c-.09.32-.14.65-.14 1 0 2.21 1.79 4 4 4s4-1.79 4-4c0-.35-.05-.68-.14-1M20.14 39c-.09.32-.14.65-.14 1 0 2.21 1.79 4 4 4s4-1.79 4-4c0-.35-.05-.68-.14-1M28.14 39c-.09.32-.14.65-.14 1 0 2.21 1.79 4 4 4s4-1.79 4-4c0-.35-.05-.68-.14-1" stroke="#6B3012" stroke-width="2" stroke-miterlimit="10" stroke-linejoin="round"/><path d="M38 39h-2" stroke="#6B3012" stroke-width="2" stroke-miterlimit="10"/></svg>