<svg width="48" height="32" fill="none" xmlns="http://www.w3.org/2000/svg"><path d="M31 8h7.94c.66 0 1.28.33 1.65.87L44 15h1c1.12 0 2 .74 2 2.21V24c0 1.1-.9 2-2 2h-2M14 1h17v25H16M8 26H3" stroke="#6B3012" stroke-width="2" stroke-miterlimit="10"/><path d="M43 27.01c0 2.2-1.79 3.99-4.01 3.99-2.22 0-4.01-1.79-4.01-3.99s1.79-3.99 4.01-3.99c2.22 0 4.01 1.78 4.01 3.99ZM16.02 27.01c0 2.2-1.79 3.99-4.01 3.99C9.8 31 8 29.21 8 27.01s1.79-3.99 4.01-3.99c2.21 0 4.01 1.78 4.01 3.99ZM31 26h4M33 16h7v-1l-2-3" stroke="#6B3012" stroke-width="2" stroke-miterlimit="10"/><path d="M0 13h17M8 7h15M6 7H4M12 1h-2" stroke="#F8AA2B" stroke-width="2" stroke-miterlimit="10"/></svg>