<svg width="192" height="67" fill="none" xmlns="http://www.w3.org/2000/svg"><path d="M48.531 50.73H0v3.03h50.354l-1.823-3.03ZM60.61 50.666l1.84 3.094h12.075l-.09-3.094H60.608ZM10.636 56.792v3.298h43.492l-1.893-3.203-41.599-.095ZM16.789 47.625 41.76 6.064l-2.95-1.772L14.802 44.54l-8.365-.004v3.09h10.352ZM24.747 47.625 52.508 1.77 49.557 0 20.733 47.625h4.014ZM39.695 29.263l22.467 37.349h4.124L41.698 25.914l-2.003 3.349ZM39.781 36.103l-2.085-3.498-8.995 15.02h4.188l6.892-11.522ZM51.455 16.588l-3.088-1.822-4.66 7.788 15.046 25.071H69.66v-3.032h-8.836L47.806 22.69l3.65-6.102Z" fill="#F7AB2B"/><path d="M91.736 34.514a16.16 16.16 0 0 1-.175 1.607 13.676 13.676 0 0 1-.35 1.585c-.147.52-.345.998-.593 1.432h7.175V28.375h-6.01v4.59c0 .496-.016 1.013-.047 1.549Zm8.2 6.977H88.592v3.102h-2.54v-5.455h1.492a4.55 4.55 0 0 0 .792-1.165c.218-.45.392-.947.524-1.49.133-.544.225-1.111.28-1.702.055-.59.081-1.188.081-1.793v-6.966h11.136v13.116h2.12v5.455h-2.54V41.49ZM108.236 32.386c-.624.48-.994 1.116-1.112 1.908h6.493c-.134-.792-.479-1.428-1.035-1.908-.556-.48-1.264-.72-2.123-.72-.859 0-1.6.24-2.223.72Zm3.967 6.544a2.58 2.58 0 0 0 1.162-.972h2.905a5.542 5.542 0 0 1-2.198 2.754c-1.027.674-2.189 1.01-3.486 1.01-.91 0-1.748-.155-2.515-.467a5.929 5.929 0 0 1-1.983-1.301 6.12 6.12 0 0 1-1.314-1.971c-.321-.758-.481-1.592-.481-2.502 0-.876.152-1.693.455-2.45a5.894 5.894 0 0 1 1.276-1.971 6.017 6.017 0 0 1 1.946-1.314c.749-.32 1.579-.48 2.489-.48.875 0 1.68.155 2.413.467a5.64 5.64 0 0 1 1.895 1.301c.53.556.943 1.205 1.238 1.946a6.43 6.43 0 0 1 .442 2.4v.53c0 .17-.017.346-.051.531h-9.323c.151.842.551 1.52 1.199 2.034.649.514 1.42.771 2.313.771.59 0 1.129-.105 1.618-.316ZM122.133 34.11v7.284h-2.653V29.706h2.853l4.454 7.058 4.481-7.058h2.802v11.688h-2.652v-7.308l-4.656 7.308-4.629-7.283ZM141.21 32.386c-.623.48-.993 1.116-1.111 1.908h6.493c-.134-.792-.48-1.428-1.036-1.908-.555-.48-1.262-.72-2.122-.72-.859 0-1.6.24-2.224.72Zm3.968 6.544c.488-.21.875-.535 1.161-.972h2.907a5.55 5.55 0 0 1-2.199 2.754c-1.027.674-2.19 1.01-3.487 1.01-.909 0-1.747-.155-2.514-.467a5.933 5.933 0 0 1-1.984-1.301 6.134 6.134 0 0 1-1.313-1.971c-.321-.758-.48-1.592-.48-2.502 0-.876.151-1.693.454-2.45a5.894 5.894 0 0 1 1.276-1.971 6.017 6.017 0 0 1 1.946-1.314c.749-.32 1.579-.48 2.489-.48.875 0 1.68.155 2.413.467a5.64 5.64 0 0 1 1.895 1.301c.53.556.943 1.205 1.238 1.946a6.43 6.43 0 0 1 .442 2.4v.53c0 .17-.017.346-.05.531h-9.324c.151.842.551 1.52 1.2 2.034.648.514 1.419.771 2.312.771.59 0 1.129-.105 1.618-.316ZM162.246 29.761v2.317h-4.434v9.316h-2.641v-9.316h-4.409V29.76h11.484ZM167.692 37.137c.202.463.476.855.821 1.175a3.3 3.3 0 0 0 1.175.708c.439.151.885.227 1.339.227.523 0 .999-.101 1.428-.304.43-.201.8-.471 1.112-.808.311-.337.552-.737.72-1.2.168-.463.253-.948.253-1.453 0-.505-.085-.986-.253-1.44a3.536 3.536 0 0 0-.72-1.188 3.562 3.562 0 0 0-1.112-.809 3.308 3.308 0 0 0-1.428-.303 4.07 4.07 0 0 0-1.339.228 3.4 3.4 0 0 0-1.175.694 3.318 3.318 0 0 0-.821 1.176c-.202.471-.303 1.018-.303 1.642 0 .64.101 1.192.303 1.655Zm-2.88-7.542h2.678v1.086c.421-.438.956-.783 1.604-1.036a5.76 5.76 0 0 1 2.11-.379c.96 0 1.815.173 2.565.518a5.597 5.597 0 0 1 1.882 1.377 6.051 6.051 0 0 1 1.162 1.984c.27.75.405 1.528.405 2.337 0 .809-.135 1.592-.405 2.35a6.018 6.018 0 0 1-1.162 1.996 5.582 5.582 0 0 1-1.882 1.377c-.75.346-1.605.518-2.565.518a5.768 5.768 0 0 1-2.11-.379c-.648-.253-1.183-.598-1.604-1.036v5.891h-2.678V29.595ZM189.12 33.864a3.445 3.445 0 0 0-.821-1.188 3.305 3.305 0 0 0-1.176-.707 4.063 4.063 0 0 0-1.339-.228c-.522 0-.998.101-1.428.303-.429.203-.8.472-1.111.81a3.5 3.5 0 0 0-.72 1.2 4.207 4.207 0 0 0-.253 1.452c0 .506.084.986.253 1.44.168.456.408.851.72 1.188.311.337.682.607 1.111.809.43.202.906.303 1.428.303.455 0 .901-.076 1.339-.227.438-.152.83-.384 1.176-.695a3.32 3.32 0 0 0 .821-1.175c.202-.472.303-1.02.303-1.643s-.101-1.17-.303-1.642Zm2.88 7.53h-2.678v-1.087c-.421.438-.956.783-1.605 1.036a5.76 5.76 0 0 1-2.11.38c-.96 0-1.815-.174-2.564-.519a5.588 5.588 0 0 1-1.883-1.377 6.064 6.064 0 0 1-1.162-1.983 6.846 6.846 0 0 1-.405-2.338c0-.808.135-1.592.405-2.35a6.036 6.036 0 0 1 1.162-1.996 5.573 5.573 0 0 1 1.883-1.377c.749-.345 1.604-.518 2.564-.518.758 0 1.461.126 2.11.38.649.252 1.184.597 1.605 1.035v-1.087H192v11.8Z" fill="#2B1C14"/><path d="M86.213 47.592h1.393l1.485 2.103 1.503-2.103h1.346l-2.185 3.044 2.185 3.08h-1.383l-1.503-2.113-1.513 2.112h-1.328l2.177-3.043-2.177-3.08ZM96.925 52.59c.243-.11.452-.26.628-.452.175-.19.311-.413.41-.668.098-.255.148-.527.148-.816 0-.295-.05-.57-.148-.826a1.953 1.953 0 0 0-1.038-1.11 1.876 1.876 0 0 0-.788-.167 1.87 1.87 0 0 0-.793.166 1.966 1.966 0 0 0-1.033 1.111c-.098.255-.148.53-.148.826 0 .289.05.56.148.816.098.255.235.478.41.668.175.191.383.342.623.452.24.111.504.167.793.167.283 0 .546-.056.788-.167Zm-2.08.996a3.033 3.033 0 0 1-1.66-1.697 3.32 3.32 0 0 1-.23-1.235c0-.443.077-.856.23-1.24a3.03 3.03 0 0 1 .656-1.01c.282-.29.618-.517 1.005-.683a3.244 3.244 0 0 1 1.29-.249c.468 0 .896.083 1.287.25.39.165.727.393 1.01.682.282.288.5.625.655 1.01.153.384.23.797.23 1.24 0 .436-.077.848-.23 1.235a3.033 3.033 0 0 1-1.665 1.697c-.39.166-.82.25-1.286.25-.474 0-.904-.084-1.291-.25ZM106.18 53.715h-1.208v-5.044h-2.112v1.826c0 .38-.02.764-.06 1.148-.04.384-.129.73-.267 1.037a1.836 1.836 0 0 1-.599.747c-.262.191-.614.286-1.057.286h-.544v-1.088h.351c.228 0 .406-.063.535-.189a1.17 1.17 0 0 0 .29-.484c.065-.197.105-.417.12-.66.016-.242.023-.48.023-.714v-2.988h4.528v6.123ZM109.851 51.493a3.66 3.66 0 0 1-.323 1.143h2.508v-3.965h-2.112v1.66c0 .363-.024.75-.073 1.162Zm3.393 1.143h.839v2.435h-1.18v-1.355h-4.196v1.355h-1.18v-2.434h.59a1.68 1.68 0 0 0 .281-.443c.077-.172.138-.358.184-.558.047-.2.08-.41.102-.632.022-.22.032-.442.032-.664v-2.748h4.528v5.044ZM119.848 49.409l-3.043 4.306h-1.208v-6.123h1.208v4.306l3.043-4.306h1.208v6.123h-1.208V49.41ZM127.162 51.188h-2.97v2.527h-1.208v-6.123h1.208v2.517h2.97v-2.517h1.208v6.123h-1.208v-2.527ZM131.505 48.671v5.044h-1.208v-6.123h4.178v1.08h-2.97Z" fill="#000"/></svg>