<svg width="62" height="56" viewBox="0 0 62 56" fill="none" xmlns="http://www.w3.org/2000/svg">
<path d="M40.375 42.6474H0V45.1959H41.8916L40.375 42.6474Z" fill="#F7AB2B"/>
<path d="M50.4233 42.5947L51.9552 45.1956H62L61.9248 42.5947H50.4233Z" fill="#F7AB2B"/>
<path d="M8.84888 47.7441V50.5173H45.0318L43.4562 47.8248L8.84888 47.7441Z" fill="#F7AB2B"/>
<path d="M13.9675 40.038L34.7423 5.09785L32.2877 3.60779L12.3144 37.4441L5.35498 37.4406V40.038H13.9675Z" fill="#F7AB2B"/>
<path d="M20.5882 40.0381L43.6836 1.48802L41.2281 0L17.2485 40.0381H20.5882Z" fill="#F7AB2B"/>
<path d="M33.0237 24.6008L51.7153 56H55.146L34.6903 21.7854L33.0237 24.6008Z" fill="#F7AB2B"/>
<path d="M33.0955 30.3518L31.3603 27.4104L23.877 40.0381H27.3611L33.0955 30.3518Z" fill="#F7AB2B"/>
<path d="M42.8078 13.9458L40.2385 12.4135L36.3621 18.9613L48.879 40.0381H57.953V37.489H50.6021L39.7714 19.0751L42.8078 13.9458Z" fill="#F7AB2B"/>
</svg>
