<svg width="75" height="67" fill="none" xmlns="http://www.w3.org/2000/svg"><path d="M48.531 50.729H0v3.032h50.354l-1.823-3.032ZM60.61 50.666l1.84 3.094h12.075l-.09-3.093H60.608ZM10.636 56.791v3.3h43.492l-1.894-3.204-41.598-.096ZM16.789 47.625 41.76 6.064l-2.95-1.772L14.802 44.54l-8.365-.004v3.09h10.352ZM24.747 47.625 52.508 1.77 49.557 0 20.733 47.625h4.014ZM39.695 29.263l22.467 37.35h4.124l-24.588-40.7-2.003 3.35ZM39.781 36.104l-2.085-3.5L28.7 47.626h4.188l6.892-11.521ZM51.455 16.588l-3.088-1.822-4.66 7.789 15.046 25.07H69.66v-3.032h-8.836L47.806 22.69l3.65-6.102Z"/></svg>
